%FSLAX34Y34*%
%MOMM*%
%LNSOLDERMASK_TOP*%
G71*
G01*
%ADD10R,2.050X2.050*%
%ADD11R,1.350X0.900*%
%ADD12R,3.700X1.800*%
%ADD13R,0.900X1.350*%
%ADD14R,0.930X5.050*%
%ADD15R,2.400X1.200*%
%ADD16R,9.400X1.400*%
%ADD17R,2.000X1.700*%
%ADD18R,1.700X2.000*%
%ADD19R,1.400X2.900*%
%ADD20R,2.000X2.000*%
%ADD21C,5.400*%
%LPD*%
G36*
X74500Y-81500D02*
X74500Y-130500D01*
X25500Y-130500D01*
X25500Y-81500D01*
X74500Y-81500D01*
G37*
G36*
X74500Y-809500D02*
X74500Y-858500D01*
X25500Y-858500D01*
X25500Y-809500D01*
X74500Y-809500D01*
G37*
G36*
X267500Y-81500D02*
X267500Y-130500D01*
X218500Y-130500D01*
X218500Y-81500D01*
X267500Y-81500D01*
G37*
G36*
X267500Y-809500D02*
X267500Y-858500D01*
X218500Y-858500D01*
X218500Y-809500D01*
X267500Y-809500D01*
G37*
G36*
X460500Y-81500D02*
X460500Y-130500D01*
X411500Y-130500D01*
X411500Y-81500D01*
X460500Y-81500D01*
G37*
G36*
X460500Y-809500D02*
X460500Y-858500D01*
X411500Y-858500D01*
X411500Y-809500D01*
X460500Y-809500D01*
G37*
G36*
X653500Y-81500D02*
X653500Y-130500D01*
X604500Y-130500D01*
X604500Y-81500D01*
X653500Y-81500D01*
G37*
G36*
X653500Y-809500D02*
X653500Y-858500D01*
X604500Y-858500D01*
X604500Y-809500D01*
X653500Y-809500D01*
G37*
X344750Y30250D02*
G54D10*
D03*
X344750Y121750D02*
G54D10*
D03*
X436250Y30250D02*
G54D10*
D03*
X436250Y121750D02*
G54D10*
D03*
X341250Y44000D02*
G54D11*
D03*
X341250Y52000D02*
G54D11*
D03*
X341250Y60000D02*
G54D11*
D03*
X341250Y68000D02*
G54D11*
D03*
X341250Y76000D02*
G54D11*
D03*
X341250Y84000D02*
G54D11*
D03*
X341250Y92000D02*
G54D11*
D03*
X341250Y100000D02*
G54D11*
D03*
X341250Y108000D02*
G54D11*
D03*
X390500Y40500D02*
G54D12*
D03*
X358500Y125250D02*
G54D13*
D03*
X366500Y125250D02*
G54D13*
D03*
X374500Y125250D02*
G54D13*
D03*
X382500Y125250D02*
G54D13*
D03*
X390500Y125250D02*
G54D13*
D03*
X398500Y125250D02*
G54D13*
D03*
X406500Y125250D02*
G54D13*
D03*
X414500Y125250D02*
G54D13*
D03*
X422500Y125250D02*
G54D13*
D03*
X439750Y44000D02*
G54D11*
D03*
X439750Y52000D02*
G54D11*
D03*
X439750Y60000D02*
G54D11*
D03*
X439750Y68000D02*
G54D11*
D03*
X439750Y76000D02*
G54D11*
D03*
X439750Y84000D02*
G54D11*
D03*
X439750Y92000D02*
G54D11*
D03*
X439750Y100000D02*
G54D11*
D03*
X439750Y108000D02*
G54D11*
D03*
X358500Y26750D02*
G54D13*
D03*
X366500Y26750D02*
G54D13*
D03*
X374500Y26750D02*
G54D13*
D03*
X382500Y26750D02*
G54D13*
D03*
X390500Y26750D02*
G54D13*
D03*
X398500Y26750D02*
G54D13*
D03*
X406500Y26750D02*
G54D13*
D03*
X414500Y26750D02*
G54D13*
D03*
X422500Y26750D02*
G54D13*
D03*
X390500Y111500D02*
G54D12*
D03*
X390500Y81300D02*
G54D14*
D03*
X630000Y58000D02*
G54D15*
D03*
X700000Y58000D02*
G54D15*
D03*
X665000Y49000D02*
G54D16*
D03*
X665000Y67000D02*
G54D16*
D03*
X630000Y-24600D02*
G54D15*
D03*
X700000Y-24600D02*
G54D15*
D03*
X665000Y-33600D02*
G54D16*
D03*
X665000Y-15600D02*
G54D16*
D03*
X472500Y18500D02*
G54D17*
D03*
X472500Y-500D02*
G54D17*
D03*
X496500Y18500D02*
G54D17*
D03*
X496500Y-500D02*
G54D17*
D03*
X319500Y108000D02*
G54D18*
D03*
X300500Y108000D02*
G54D18*
D03*
X319500Y76000D02*
G54D18*
D03*
X300500Y76000D02*
G54D18*
D03*
X319500Y44000D02*
G54D18*
D03*
X300500Y44000D02*
G54D18*
D03*
X542000Y24500D02*
G54D19*
D03*
X542000Y-14500D02*
G54D19*
D03*
X397500Y-27000D02*
G54D20*
D03*
X397500Y-55000D02*
G54D20*
D03*
X373500Y-27000D02*
G54D20*
D03*
X373500Y-55000D02*
G54D20*
D03*
X327500Y-22500D02*
G54D19*
D03*
X327500Y-61500D02*
G54D19*
D03*
X50000Y110500D02*
G54D21*
D03*
X150000Y110500D02*
G54D21*
D03*
M02*
