%FSLAX34Y34*%
%MOMM*%
%LNSILK_BOTTOM*%
G71*
G01*
%ADD10C,0.318*%
%ADD11C,0.159*%
%ADD12C,0.150*%
%LPD*%
G54D10*
X56000Y-790222D02*
X45333Y-790222D01*
G54D10*
X250000Y-791222D02*
X239333Y-791222D01*
G54D10*
X443000Y-792222D02*
X432333Y-792222D01*
G54D10*
X635000Y-791222D02*
X624333Y-791222D01*
G54D10*
X55000Y-152222D02*
X44333Y-152222D01*
G54D10*
X49667Y-147778D02*
X49667Y-156667D01*
G54D11*
X365312Y28361D02*
X367312Y27250D01*
X367979Y26139D01*
X367979Y23917D01*
G54D11*
X362645Y23917D02*
X362645Y32806D01*
X365979Y32806D01*
X367312Y32250D01*
X367979Y31139D01*
X367979Y30028D01*
X367312Y28917D01*
X365979Y28361D01*
X362645Y28361D01*
G54D11*
X379667Y31139D02*
X379000Y32250D01*
X377667Y32806D01*
X376333Y32806D01*
X375000Y32250D01*
X374333Y31139D01*
X374333Y28361D01*
X374333Y27806D01*
X376333Y28917D01*
X377667Y28917D01*
X379000Y28361D01*
X379667Y27250D01*
X379667Y25583D01*
X379000Y24472D01*
X377667Y23917D01*
X376333Y23917D01*
X375000Y24472D01*
X374333Y25583D01*
X374333Y28361D01*
G54D11*
X386111Y28361D02*
X384777Y28361D01*
X383444Y28917D01*
X382777Y30028D01*
X382777Y31139D01*
X383444Y32250D01*
X384777Y32806D01*
X386111Y32806D01*
X387444Y32250D01*
X388111Y31139D01*
X388111Y30028D01*
X387444Y28917D01*
X386111Y28361D01*
X387444Y27806D01*
X388111Y26694D01*
X388111Y25583D01*
X387444Y24472D01*
X386111Y23917D01*
X384777Y23917D01*
X383444Y24472D01*
X382777Y25583D01*
X382777Y26694D01*
X383444Y27806D01*
X384777Y28361D01*
G54D11*
X391221Y23917D02*
X391221Y23917D01*
G54D11*
X394332Y29472D02*
X397666Y32806D01*
X397666Y23917D01*
G54D11*
X400776Y23917D02*
X400776Y32806D01*
G54D11*
X402776Y27250D02*
X404776Y23917D01*
G54D11*
X400776Y26139D02*
X404776Y28917D01*
G54D12*
X372500Y55000D02*
X372500Y33000D01*
X410500Y33000D01*
X410500Y55000D01*
X372500Y55000D01*
G54D10*
X248000Y-151722D02*
X237333Y-151722D01*
G54D10*
X242667Y-147278D02*
X242667Y-156167D01*
G54D10*
X442000Y-156222D02*
X431333Y-156222D01*
G54D10*
X436667Y-151778D02*
X436667Y-160667D01*
G54D10*
X635000Y-155722D02*
X624333Y-155722D01*
G54D10*
X629667Y-151278D02*
X629667Y-160167D01*
M02*
