%FSLAX34Y34*%
%MOMM*%
%LNSILK_TOP*%
G71*
G01*
%ADD10C,0.200*%
%ADD11C,0.159*%
%ADD12C,0.150*%
%ADD13C,0.318*%
%LPD*%
G54D10*
X740000Y140000D02*
X590000Y140000D01*
X590000Y-70000D01*
X740000Y-70000D01*
X740000Y140000D01*
G54D10*
X-60000Y-80000D02*
X740000Y-80000D01*
X740000Y-860000D01*
X-60000Y-860000D01*
X-60000Y-80000D01*
G54D11*
X243667Y108444D02*
X245667Y107333D01*
X246333Y106222D01*
X246333Y104000D01*
G54D11*
X241000Y104000D02*
X241000Y112889D01*
X244333Y112889D01*
X245667Y112333D01*
X246333Y111222D01*
X246333Y110111D01*
X245667Y109000D01*
X244333Y108444D01*
X241000Y108444D01*
G54D11*
X258021Y111222D02*
X257355Y112333D01*
X256021Y112889D01*
X254688Y112889D01*
X253355Y112333D01*
X252688Y111222D01*
X252688Y108444D01*
X252688Y107889D01*
X254688Y109000D01*
X256021Y109000D01*
X257355Y108444D01*
X258021Y107333D01*
X258021Y105667D01*
X257355Y104556D01*
X256021Y104000D01*
X254688Y104000D01*
X253355Y104556D01*
X252688Y105667D01*
X252688Y108444D01*
G54D11*
X261132Y111222D02*
X261799Y112333D01*
X263132Y112889D01*
X264465Y112889D01*
X265799Y112333D01*
X266465Y111222D01*
X266465Y110111D01*
X265799Y109000D01*
X264465Y108444D01*
X265799Y107889D01*
X266465Y106778D01*
X266465Y105667D01*
X265799Y104556D01*
X264465Y104000D01*
X263132Y104000D01*
X261799Y104556D01*
X261132Y105667D01*
G54D11*
X269576Y104000D02*
X269576Y104000D01*
G54D11*
X276687Y104000D02*
X276687Y112889D01*
X272687Y107333D01*
X272687Y106222D01*
X278020Y106222D01*
G54D11*
X281131Y104000D02*
X281131Y112889D01*
G54D11*
X283131Y107333D02*
X285131Y104000D01*
G54D11*
X281131Y106222D02*
X285131Y109000D01*
G54D11*
X254667Y76944D02*
X256667Y75833D01*
X257333Y74722D01*
X257333Y72500D01*
G54D11*
X252000Y72500D02*
X252000Y81389D01*
X255333Y81389D01*
X256667Y80833D01*
X257333Y79722D01*
X257333Y78611D01*
X256667Y77500D01*
X255333Y76944D01*
X252000Y76944D01*
G54D11*
X263688Y78056D02*
X267021Y81389D01*
X267021Y72500D01*
G54D11*
X270132Y74167D02*
X270799Y73056D01*
X272132Y72500D01*
X273465Y72500D01*
X274799Y73056D01*
X275465Y74167D01*
X275465Y76944D01*
X275465Y77500D01*
X273465Y76389D01*
X272132Y76389D01*
X270799Y76944D01*
X270132Y78056D01*
X270132Y79722D01*
X270799Y80833D01*
X272132Y81389D01*
X273465Y81389D01*
X274799Y80833D01*
X275465Y79722D01*
X275465Y76944D01*
G54D11*
X283909Y79722D02*
X283243Y80833D01*
X281909Y81389D01*
X280576Y81389D01*
X279243Y80833D01*
X278576Y79722D01*
X278576Y76944D01*
X278576Y76389D01*
X280576Y77500D01*
X281909Y77500D01*
X283243Y76944D01*
X283909Y75833D01*
X283909Y74167D01*
X283243Y73056D01*
X281909Y72500D01*
X280576Y72500D01*
X279243Y73056D01*
X278576Y74167D01*
X278576Y76944D01*
G54D11*
X246167Y45944D02*
X248167Y44833D01*
X248833Y43722D01*
X248833Y41500D01*
G54D11*
X243500Y41500D02*
X243500Y50389D01*
X246833Y50389D01*
X248167Y49833D01*
X248833Y48722D01*
X248833Y47611D01*
X248167Y46500D01*
X246833Y45944D01*
X243500Y45944D01*
G54D11*
X260521Y41500D02*
X255188Y41500D01*
X255188Y42056D01*
X255855Y43167D01*
X259855Y46500D01*
X260521Y47611D01*
X260521Y48722D01*
X259855Y49833D01*
X258521Y50389D01*
X257188Y50389D01*
X255855Y49833D01*
X255188Y48722D01*
G54D11*
X263632Y47056D02*
X266965Y50389D01*
X266965Y41500D01*
G54D11*
X271409Y41500D02*
X271409Y40389D01*
X270743Y39278D01*
X270076Y39278D01*
G54D11*
X279853Y50389D02*
X274520Y50389D01*
X274520Y46500D01*
X275187Y46500D01*
X276520Y47056D01*
X277853Y47056D01*
X279187Y46500D01*
X279853Y45389D01*
X279853Y43167D01*
X279187Y42056D01*
X277853Y41500D01*
X276520Y41500D01*
X275187Y42056D01*
X274520Y43167D01*
G54D11*
X282964Y41500D02*
X282964Y50389D01*
G54D11*
X284964Y44833D02*
X286964Y41500D01*
G54D11*
X282964Y43722D02*
X286964Y46500D01*
G54D11*
X477253Y-48160D02*
X478364Y-48827D01*
X478919Y-50160D01*
X478920Y-51493D01*
X478364Y-52827D01*
X477253Y-53493D01*
X471697Y-53493D01*
X470586Y-52827D01*
X470031Y-51493D01*
X470031Y-50160D01*
X470586Y-48827D01*
X471697Y-48160D01*
G54D11*
X473364Y-41805D02*
X470031Y-38472D01*
X478919Y-38472D01*
G54D11*
X471697Y-30028D02*
X477253Y-30028D01*
X478364Y-30695D01*
X478919Y-32028D01*
X478919Y-33361D01*
X478364Y-34695D01*
X477253Y-35361D01*
X471697Y-35361D01*
X470586Y-34695D01*
X470031Y-33361D01*
X470031Y-32028D01*
X470586Y-30695D01*
X471697Y-30028D01*
G54D11*
X471697Y-21584D02*
X477253Y-21584D01*
X478364Y-22251D01*
X478919Y-23584D01*
X478920Y-24917D01*
X478364Y-26251D01*
X477253Y-26917D01*
X471697Y-26917D01*
X470586Y-26251D01*
X470031Y-24917D01*
X470031Y-23584D01*
X470586Y-22251D01*
X471697Y-21584D01*
G54D11*
X478919Y-18473D02*
X473920Y-18473D01*
G54D11*
X475031Y-18473D02*
X474253Y-17807D01*
X473919Y-16473D01*
X474253Y-15140D01*
X475031Y-14473D01*
X478920Y-14473D01*
G54D11*
X498650Y-38416D02*
X499762Y-39082D01*
X500317Y-40416D01*
X500317Y-41749D01*
X499762Y-43082D01*
X498650Y-43749D01*
X493095Y-43749D01*
X491984Y-43082D01*
X491428Y-41749D01*
X491428Y-40416D01*
X491984Y-39082D01*
X493095Y-38416D01*
G54D11*
X500317Y-31305D02*
X491428Y-31305D01*
X496984Y-35305D01*
X498095Y-35305D01*
X498095Y-29972D01*
G54D11*
X491428Y-26861D02*
X491428Y-21528D01*
X492539Y-22194D01*
X494206Y-23528D01*
X496428Y-24861D01*
X498095Y-25528D01*
X500317Y-25528D01*
G54D11*
X495317Y-14417D02*
X500317Y-14417D01*
G54D11*
X499206Y-14417D02*
X500095Y-15084D01*
X500317Y-16417D01*
X500095Y-17750D01*
X499206Y-18417D01*
X495317Y-18417D01*
G54D12*
X461500Y28000D02*
X483500Y28000D01*
X483500Y-10000D01*
X461500Y-10000D01*
X461500Y28000D01*
G54D12*
X485500Y28000D02*
X507500Y28000D01*
X507500Y-10000D01*
X485500Y-10000D01*
X485500Y28000D01*
G54D12*
X329000Y119000D02*
X329000Y97000D01*
X291000Y97000D01*
X291000Y119000D01*
X329000Y119000D01*
G54D12*
X329000Y87000D02*
X329000Y65000D01*
X291000Y65000D01*
X291000Y87000D01*
X329000Y87000D01*
G54D12*
X329000Y55000D02*
X329000Y33000D01*
X291000Y33000D01*
X291000Y55000D01*
X329000Y55000D01*
G54D10*
G75*
G01X552774Y-24600D02*
G03X552774Y34600I-10774J29600D01*
G01*
G54D10*
G75*
G01X531226Y34600D02*
G03X531226Y-24600I10774J-29600D01*
G01*
G54D11*
X506389Y29000D02*
X506389Y23667D01*
G54D11*
X508611Y26333D02*
X504167Y26333D01*
G54D11*
X524809Y1931D02*
X524142Y820D01*
X522809Y264D01*
X521476Y264D01*
X520142Y820D01*
X519476Y1931D01*
X519476Y7486D01*
X520142Y8598D01*
X521476Y9153D01*
X522809Y9153D01*
X524142Y8598D01*
X524809Y7487D01*
G54D11*
X531164Y5820D02*
X534497Y9153D01*
X534497Y264D01*
G54D11*
X542941Y7487D02*
X542941Y1931D01*
X542274Y820D01*
X540941Y264D01*
X539608Y264D01*
X538274Y820D01*
X537608Y1931D01*
X537608Y7486D01*
X538274Y8598D01*
X539608Y9153D01*
X540941Y9153D01*
X542274Y8598D01*
X542941Y7487D01*
G54D11*
X551385Y7487D02*
X551385Y1931D01*
X550718Y820D01*
X549385Y264D01*
X548052Y264D01*
X546718Y820D01*
X546052Y1931D01*
X546052Y7486D01*
X546718Y8598D01*
X548052Y9153D01*
X549385Y9153D01*
X550718Y8598D01*
X551385Y7487D01*
G54D11*
X558496Y5264D02*
X558496Y264D01*
G54D11*
X558496Y1376D02*
X557829Y486D01*
X556496Y264D01*
X555162Y487D01*
X554496Y1376D01*
X554496Y5264D01*
G54D11*
X561607Y264D02*
X561607Y9153D01*
X566273Y9153D01*
G54D11*
X561607Y4709D02*
X566273Y4709D01*
G54D12*
X386500Y-16000D02*
X408500Y-16000D01*
X408500Y-66000D01*
X386500Y-66000D01*
X386500Y-16000D01*
G54D12*
X362500Y-16000D02*
X384500Y-16000D01*
X384500Y-66000D01*
X362500Y-66000D01*
X362500Y-16000D01*
G54D10*
G75*
G01X338274Y-71600D02*
G03X338274Y-12400I-10774J29600D01*
G01*
G54D10*
G75*
G01X316726Y-12400D02*
G03X316726Y-71600I10774J-29600D01*
G01*
G54D11*
X340389Y-18000D02*
X340389Y-23333D01*
G54D11*
X342611Y-20667D02*
X338167Y-20667D01*
G54D13*
X189111Y107833D02*
X189111Y118500D01*
G54D13*
X184666Y113166D02*
X193555Y113166D01*
G54D13*
X84778Y116666D02*
X95445Y116666D01*
G54D11*
X308809Y-44569D02*
X308142Y-45680D01*
X306809Y-46236D01*
X305476Y-46236D01*
X304142Y-45680D01*
X303476Y-44569D01*
X303476Y-39013D01*
X304142Y-37902D01*
X305476Y-37347D01*
X306809Y-37347D01*
X308142Y-37902D01*
X308809Y-39013D01*
G54D11*
X320497Y-46236D02*
X315164Y-46236D01*
X315164Y-45680D01*
X315830Y-44569D01*
X319830Y-41236D01*
X320497Y-40124D01*
X320497Y-39013D01*
X319830Y-37902D01*
X318497Y-37347D01*
X317164Y-37347D01*
X315830Y-37902D01*
X315164Y-39013D01*
G54D11*
X328941Y-46236D02*
X323608Y-46236D01*
X323608Y-45680D01*
X324274Y-44569D01*
X328274Y-41236D01*
X328941Y-40124D01*
X328941Y-39013D01*
X328274Y-37902D01*
X326941Y-37347D01*
X325608Y-37347D01*
X324274Y-37902D01*
X323608Y-39013D01*
G54D11*
X337385Y-39013D02*
X337385Y-44569D01*
X336718Y-45680D01*
X335385Y-46236D01*
X334052Y-46236D01*
X332718Y-45680D01*
X332052Y-44569D01*
X332052Y-39013D01*
X332718Y-37902D01*
X334052Y-37347D01*
X335385Y-37347D01*
X336718Y-37902D01*
X337385Y-39013D01*
G54D11*
X344496Y-41236D02*
X344496Y-46236D01*
G54D11*
X344496Y-45124D02*
X343829Y-46013D01*
X342496Y-46236D01*
X341162Y-46013D01*
X340496Y-45124D01*
X340496Y-41236D01*
G54D11*
X347607Y-46236D02*
X347607Y-37347D01*
X352273Y-37347D01*
G54D11*
X347607Y-41791D02*
X352273Y-41791D01*
G54D11*
X367309Y-75069D02*
X366642Y-76180D01*
X365309Y-76736D01*
X363976Y-76736D01*
X362642Y-76180D01*
X361976Y-75069D01*
X361976Y-69514D01*
X362642Y-68402D01*
X363976Y-67847D01*
X365309Y-67847D01*
X366642Y-68402D01*
X367309Y-69514D01*
G54D11*
X373664Y-71180D02*
X376997Y-67847D01*
X376997Y-76736D01*
G54D11*
X385441Y-69514D02*
X385441Y-75069D01*
X384774Y-76180D01*
X383441Y-76736D01*
X382108Y-76736D01*
X380774Y-76180D01*
X380108Y-75069D01*
X380108Y-69514D01*
X380774Y-68402D01*
X382108Y-67847D01*
X383441Y-67847D01*
X384774Y-68402D01*
X385441Y-69514D01*
G54D11*
X393885Y-69514D02*
X393885Y-75069D01*
X393218Y-76180D01*
X391885Y-76736D01*
X390552Y-76736D01*
X389218Y-76180D01*
X388552Y-75069D01*
X388552Y-69514D01*
X389218Y-68402D01*
X390552Y-67847D01*
X391885Y-67847D01*
X393218Y-68402D01*
X393885Y-69514D01*
G54D11*
X400996Y-71736D02*
X400996Y-76736D01*
G54D11*
X400996Y-75624D02*
X400329Y-76514D01*
X398996Y-76736D01*
X397662Y-76514D01*
X396996Y-75624D01*
X396996Y-71736D01*
G54D11*
X404107Y-76736D02*
X404107Y-67847D01*
X408773Y-67847D01*
G54D11*
X404107Y-72291D02*
X408773Y-72291D01*
M02*
