%FSLAX34Y34*%
%MOMM*%
%LNSOLDERMASK_BOTTOM*%
G71*
G01*
%ADD10R,2.400X1.200*%
%ADD11R,9.400X1.400*%
%ADD12C,5.400*%
%ADD13R,1.700X2.000*%
%LPD*%
G36*
X74500Y-81500D02*
X74500Y-130500D01*
X25500Y-130500D01*
X25500Y-81500D01*
X74500Y-81500D01*
G37*
G36*
X74500Y-809500D02*
X74500Y-858500D01*
X25500Y-858500D01*
X25500Y-809500D01*
X74500Y-809500D01*
G37*
G36*
X267500Y-81500D02*
X267500Y-130500D01*
X218500Y-130500D01*
X218500Y-81500D01*
X267500Y-81500D01*
G37*
G36*
X267500Y-809500D02*
X267500Y-858500D01*
X218500Y-858500D01*
X218500Y-809500D01*
X267500Y-809500D01*
G37*
G36*
X460500Y-81500D02*
X460500Y-130500D01*
X411500Y-130500D01*
X411500Y-81500D01*
X460500Y-81500D01*
G37*
G36*
X460500Y-809500D02*
X460500Y-858500D01*
X411500Y-858500D01*
X411500Y-809500D01*
X460500Y-809500D01*
G37*
G36*
X653500Y-81500D02*
X653500Y-130500D01*
X604500Y-130500D01*
X604500Y-81500D01*
X653500Y-81500D01*
G37*
G36*
X653500Y-809500D02*
X653500Y-858500D01*
X604500Y-858500D01*
X604500Y-809500D01*
X653500Y-809500D01*
G37*
X630000Y58000D02*
G54D10*
D03*
X700000Y58000D02*
G54D10*
D03*
X665000Y49000D02*
G54D11*
D03*
X665000Y67000D02*
G54D11*
D03*
X630000Y-24600D02*
G54D10*
D03*
X700000Y-24600D02*
G54D10*
D03*
X665000Y-33600D02*
G54D11*
D03*
X665000Y-15600D02*
G54D11*
D03*
X50000Y110500D02*
G54D12*
D03*
X150000Y110500D02*
G54D12*
D03*
X382000Y44000D02*
G54D13*
D03*
X401000Y44000D02*
G54D13*
D03*
M02*
