; Drill file
; Format: 2.4 (00.0000)
M48
INCH
T01C0.0118
T02C0.0394
T03C0.0591
T04C0.126
%
G05
G90
T01
X014900Y000020
X014900Y000330
X014900Y000650
X015220Y000650
X015220Y000330
X015220Y000020
X015530Y000020
X015530Y000330
X015530Y000650
X015850Y000650
X015850Y000330
X015850Y000020
X014390Y001730
X014070Y001730
X013760Y001730
X013070Y001730
X014840Y002420
X015160Y002420
X015160Y002740
X015160Y003050
X015160Y003370
X015160Y003680
X015160Y004000
X014840Y004000
X014840Y003680
X014840Y003370
X014840Y003050
X014840Y002740
X015590Y002740
X015590Y003050
X015590Y003370
X015590Y003680
X015590Y004000
X015910Y004000
X015910Y003680
X015910Y003370
X015910Y003050
X015910Y002740
X015910Y002420
X015590Y002420
T02
X001970Y-032830
X009570Y-032830
X017170Y-032830
X024760Y-032830
X024760Y-004170
X017170Y-004170
X009570Y-004170
X001970Y-004170
T03
X001970Y004350
X005910Y004350
T04
X001970Y-029450
X009570Y-029450
X017170Y-029450
X024760Y-029450
X024760Y-007560
X017170Y-007560
X009570Y-007560
X001970Y-007560
M30
